<mxfile host="app.diagrams.net" modified="2022-02-17T13:56:53.722Z" agent="5.0 (Windows NT 10.0; Win64; x64) AppleWebKit/537.36 (KHTML, like Gecko) Chrome/98.0.4758.102 Safari/537.36" etag="59ltvYwmBH0uM9YgktZg" version="16.5.6" type="github">
  <diagram id="RYxesC6GKuMK5YFyHAlI" name="Page-1">
    <mxGraphModel dx="1422" dy="762" grid="1" gridSize="10" guides="1" tooltips="1" connect="1" arrows="1" fold="1" page="1" pageScale="1" pageWidth="827" pageHeight="1169" math="0" shadow="0">
      <root>
        <mxCell id="0" />
        <mxCell id="1" parent="0" />
        <mxCell id="wqJMQl04LIo_0otmr0Y4-9" style="edgeStyle=orthogonalEdgeStyle;rounded=0;orthogonalLoop=1;jettySize=auto;html=1;entryX=0;entryY=0.5;entryDx=0;entryDy=0;" edge="1" parent="1" source="wqJMQl04LIo_0otmr0Y4-1" target="wqJMQl04LIo_0otmr0Y4-3">
          <mxGeometry relative="1" as="geometry" />
        </mxCell>
        <mxCell id="wqJMQl04LIo_0otmr0Y4-12" style="edgeStyle=orthogonalEdgeStyle;rounded=0;orthogonalLoop=1;jettySize=auto;html=1;entryX=0;entryY=0.5;entryDx=0;entryDy=0;" edge="1" parent="1" source="wqJMQl04LIo_0otmr0Y4-1" target="wqJMQl04LIo_0otmr0Y4-4">
          <mxGeometry relative="1" as="geometry">
            <mxPoint x="460" y="160" as="targetPoint" />
            <Array as="points">
              <mxPoint x="220" y="80" />
              <mxPoint x="220" y="80" />
            </Array>
          </mxGeometry>
        </mxCell>
        <mxCell id="wqJMQl04LIo_0otmr0Y4-1" value="Entry" style="rounded=0;whiteSpace=wrap;html=1;" vertex="1" parent="1">
          <mxGeometry x="70" y="50" width="120" height="60" as="geometry" />
        </mxCell>
        <mxCell id="wqJMQl04LIo_0otmr0Y4-10" style="edgeStyle=orthogonalEdgeStyle;rounded=0;orthogonalLoop=1;jettySize=auto;html=1;entryX=0;entryY=0.5;entryDx=0;entryDy=0;" edge="1" parent="1" source="wqJMQl04LIo_0otmr0Y4-2" target="wqJMQl04LIo_0otmr0Y4-3">
          <mxGeometry relative="1" as="geometry" />
        </mxCell>
        <mxCell id="wqJMQl04LIo_0otmr0Y4-2" value="Port Setting" style="rounded=0;whiteSpace=wrap;html=1;" vertex="1" parent="1">
          <mxGeometry x="70" y="310" width="120" height="60" as="geometry" />
        </mxCell>
        <mxCell id="wqJMQl04LIo_0otmr0Y4-11" style="edgeStyle=orthogonalEdgeStyle;rounded=0;orthogonalLoop=1;jettySize=auto;html=1;entryX=0;entryY=0.5;entryDx=0;entryDy=0;" edge="1" parent="1" source="wqJMQl04LIo_0otmr0Y4-3" target="wqJMQl04LIo_0otmr0Y4-4">
          <mxGeometry relative="1" as="geometry" />
        </mxCell>
        <mxCell id="wqJMQl04LIo_0otmr0Y4-13" style="edgeStyle=orthogonalEdgeStyle;rounded=0;orthogonalLoop=1;jettySize=auto;html=1;entryX=0;entryY=0.5;entryDx=0;entryDy=0;" edge="1" parent="1" source="wqJMQl04LIo_0otmr0Y4-3" target="wqJMQl04LIo_0otmr0Y4-5">
          <mxGeometry relative="1" as="geometry" />
        </mxCell>
        <mxCell id="wqJMQl04LIo_0otmr0Y4-15" style="edgeStyle=orthogonalEdgeStyle;rounded=0;orthogonalLoop=1;jettySize=auto;html=1;entryX=0;entryY=0.5;entryDx=0;entryDy=0;" edge="1" parent="1" source="wqJMQl04LIo_0otmr0Y4-3" target="wqJMQl04LIo_0otmr0Y4-8">
          <mxGeometry relative="1" as="geometry">
            <Array as="points">
              <mxPoint x="430" y="230" />
              <mxPoint x="430" y="270" />
              <mxPoint x="670" y="270" />
            </Array>
          </mxGeometry>
        </mxCell>
        <mxCell id="wqJMQl04LIo_0otmr0Y4-16" style="edgeStyle=orthogonalEdgeStyle;rounded=0;orthogonalLoop=1;jettySize=auto;html=1;entryX=0;entryY=0.5;entryDx=0;entryDy=0;" edge="1" parent="1" source="wqJMQl04LIo_0otmr0Y4-3" target="wqJMQl04LIo_0otmr0Y4-6">
          <mxGeometry relative="1" as="geometry" />
        </mxCell>
        <mxCell id="wqJMQl04LIo_0otmr0Y4-3" value="Table Lookup&lt;br&gt;including port move detection" style="rounded=0;whiteSpace=wrap;html=1;" vertex="1" parent="1">
          <mxGeometry x="250" y="200" width="120" height="60" as="geometry" />
        </mxCell>
        <mxCell id="wqJMQl04LIo_0otmr0Y4-4" value="Packet Action&lt;br&gt;(ACT)" style="rounded=0;whiteSpace=wrap;html=1;" vertex="1" parent="1">
          <mxGeometry x="490" y="50" width="120" height="60" as="geometry" />
        </mxCell>
        <mxCell id="wqJMQl04LIo_0otmr0Y4-19" style="edgeStyle=orthogonalEdgeStyle;rounded=0;orthogonalLoop=1;jettySize=auto;html=1;entryX=0;entryY=0.5;entryDx=0;entryDy=0;" edge="1" parent="1" source="wqJMQl04LIo_0otmr0Y4-5" target="wqJMQl04LIo_0otmr0Y4-8">
          <mxGeometry relative="1" as="geometry" />
        </mxCell>
        <mxCell id="wqJMQl04LIo_0otmr0Y4-5" value="Table Entry Learn or Update&lt;br&gt;(LRN)" style="rounded=0;whiteSpace=wrap;html=1;" vertex="1" parent="1">
          <mxGeometry x="490" y="200" width="120" height="60" as="geometry" />
        </mxCell>
        <mxCell id="wqJMQl04LIo_0otmr0Y4-6" value="Table Entry Age" style="rounded=0;whiteSpace=wrap;html=1;" vertex="1" parent="1">
          <mxGeometry x="490" y="350" width="120" height="60" as="geometry" />
        </mxCell>
        <mxCell id="wqJMQl04LIo_0otmr0Y4-8" value="Notification" style="rounded=0;whiteSpace=wrap;html=1;" vertex="1" parent="1">
          <mxGeometry x="670" y="200" width="120" height="60" as="geometry" />
        </mxCell>
      </root>
    </mxGraphModel>
  </diagram>
</mxfile>
